<svg viewBox="0 0 512 512" xmlns="http://www.w3.org/2000/svg"><path fill="#ffb632" fill-rule="evenodd" d="M248.923 8.923C246 11.846 246 11.846 246 38.5c0 26.654 0 26.654 2.923 29.577 4.116 4.116 10.038 4.116 14.154 0C266 65.154 266 65.154 266 38.5c0-26.654 0-26.654-2.923-29.577-4.116-4.116-10.038-4.116-14.154 0M79.4 79.4c-3.336 3.336-3.607 4.021-3.096 7.831.514 3.833 2.067 5.675 18.932 22.472C113.318 127.711 113.676 128 117.881 128c3.389 0 4.877-.604 7.196-2.923S128 121.27 128 117.881c0-4.205-.289-4.563-18.297-22.645-16.797-16.865-18.639-18.418-22.472-18.932-3.81-.511-4.495-.24-7.831 3.096m342.1-2.43c-1.1.465-9.988 8.902-19.75 18.75-17.425 17.578-17.75 17.984-17.75 22.17 0 6.019 4.095 10.11 10.119 10.11 4.205 0 4.563-.289 22.645-18.297 16.865-16.797 18.418-18.639 18.932-22.472.508-3.789.233-4.502-2.968-7.703-3.612-3.612-6.934-4.369-11.228-2.558M8.923 248.923c-4.116 4.116-4.116 10.038 0 14.154C11.846 266 11.846 266 38.5 266c26.654 0 26.654 0 29.577-2.923 4.116-4.116 4.116-10.038 0-14.154C65.154 246 65.154 246 38.5 246c-26.654 0-26.654 0-29.577 2.923m435 0C441.631 251.216 441 252.742 441 256s.631 4.784 2.923 7.077C446.846 266 446.846 266 473.5 266c26.654 0 26.654 0 29.577-2.923 2.292-2.293 2.923-3.819 2.923-7.077s-.631-4.784-2.923-7.077C500.154 246 500.154 246 473.5 246c-26.654 0-26.654 0-29.577 2.923M95.236 402.297c-16.865 16.797-18.418 18.639-18.932 22.472-.511 3.81-.24 4.495 3.096 7.831 3.336 3.336 4.021 3.607 7.831 3.096 3.833-.514 5.675-2.067 22.472-18.932C127.711 398.682 128 398.324 128 394.119c0-6.028-4.091-10.119-10.119-10.119-4.205 0-4.563.289-22.645 18.297m291.687-15.374c-2.319 2.319-2.923 3.807-2.923 7.196 0 4.205.289 4.563 18.297 22.645 16.797 16.865 18.639 18.418 22.472 18.932 3.81.511 4.495.24 7.831-3.096 3.336-3.336 3.607-4.021 3.096-7.831-.514-3.833-2.067-5.675-18.932-22.472C398.682 384.289 398.324 384 394.119 384c-3.389 0-4.877.604-7.196 2.923m-138 57C246 446.846 246 446.846 246 473.5c0 26.654 0 26.654 2.923 29.577 2.293 2.292 3.819 2.923 7.077 2.923s4.784-.631 7.077-2.923C266 500.154 266 500.154 266 473.5c0-26.654 0-26.654-2.923-29.577-2.293-2.292-3.819-2.923-7.077-2.923s-4.784.631-7.077 2.923"/><path fill="#ffd33a" fill-rule="evenodd" d="M238.5 113.689c-16.026 2.077-32.681 7.315-47.843 15.047-38.252 19.508-65.268 54.655-74.825 97.345-2.007 8.967-2.332 13.137-2.332 29.919s.325 20.952 2.332 29.919c9.494 42.41 36.879 78.03 74.825 97.329 20.804 10.581 36.801 14.641 60.843 15.443 13.354.446 17.985.192 28-1.533 30.245-5.21 55.821-18.457 77.511-40.147 16.33-16.33 27.433-34.154 34.487-55.36 5.867-17.637 7.001-25.03 7.001-45.651 0-20.621-1.134-28.014-7.001-45.651-16.486-49.56-59.676-86.575-111.317-95.404-10.604-1.812-32.336-2.468-41.681-1.256m2 25.383c-44.894 6.153-82.762 37.854-96.574 80.844-21.754 67.714 20.496 138.283 91.118 152.193 9.784 1.927 33.756 1.664 43.752-.48 48.382-10.377 84.748-47.653 93.296-95.629 1.716-9.634 1.716-30.366 0-40-8.53-47.877-45.144-85.452-93.092-95.536-9.291-1.953-29.161-2.672-38.5-1.392"/><path fill="#1f2833" fill-rule="evenodd" d="M243.217 138.977c-40.564 4.59-75.398 29.427-93.301 66.523-21.593 44.742-12.344 98.213 23.091 133.5 22.701 22.606 50.297 34.148 81.993 34.296 32.7.152 61.239-11.489 84.023-34.273 22.374-22.374 34.213-51.065 34.258-83.023.045-31.754-11.874-60.639-34.258-83.023-16.637-16.637-37.126-27.603-60.523-32.394-9.142-1.871-26.114-2.644-35.283-1.606"/></svg>
