<svg viewBox="0 0 512 512" xmlns="http://www.w3.org/2000/svg"><path fill="#455a64" fill-rule="evenodd" d="M153.25 11.75c56.512.143 148.987.143 205.5 0 56.512-.143 10.275-.259-102.75-.259s-159.263.116-102.75.259M12.2 32.2c-.66.66-1.198 1.673-1.195 2.25.003.577 41.849 31.2 92.991 68.05l92.986 67-90.209 90.22c-90.208 90.22-90.208 90.22-92.741 88.017-1.392-1.212-.526-.073 1.926 2.53 4.311 4.577 7.256 6.837 3.498 2.684-1.838-2.031-1.075-2.828 88.093-92C157.02 211.478 197.839 171 198.258 171c.419 0 7.845 5.116 16.502 11.368 21.989 15.882 28.03 18.608 41.24 18.608s19.251-2.726 41.24-18.608c8.657-6.252 16.083-11.368 16.502-11.368.419 0 41.238 40.478 90.709 89.951 89.168 89.172 89.931 89.969 88.093 92-3.758 4.153-.813 1.893 3.498-2.684 2.452-2.603 3.318-3.742 1.926-2.53-2.533 2.203-2.533 2.203-92.739-88.017l-90.206-90.22 92.739-67.098c74.086-53.602 93.032-66.877 94.199-66 .803.604.435-.364-.818-2.152-1.254-1.788-2.529-3.25-2.834-3.25-.304 0 .015.686.711 1.524s1.088 1.668.873 1.844c-1.218.993-211.418 152.761-216.437 156.272-10.166 7.11-15.337 8.76-27.456 8.76-12.921 0-17.334-1.608-31-11.291C209.14 176.871 13.566 35.827 12.592 34.925c-.536-.497-.384-1.47.373-2.383 1.512-1.821.961-2.068-.765-.342m239.576 201.533c2.352.212 5.952.209 8-.006s.124-.388-4.276-.384c-4.4.003-6.076.179-3.724.39M240 256.605c-19.735 3.591-33.181 8.273-46.5 16.192-57.454 34.162-77.276 109.495-43.865 166.703 36.437 62.387 116.366 80.434 176.159 39.774 10.702-7.277 17.972-14.507 18.748-18.646 1.659-8.844-8.097-16.529-15.858-12.492-1.201.625-4.434 2.998-7.184 5.274-14.344 11.868-26.826 18.253-43.5 22.251-11.129 2.669-33.63 2.481-45-.375-41.855-10.515-71.032-43.799-76.106-86.819-2.529-21.446 3.431-46.036 15.666-64.634 5.865-8.915 18.698-21.982 27.234-27.729 8.695-5.855 21.188-11.666 30.706-14.284 6.829-1.877 10.561-2.199 25.5-2.199 20.011 0 26.702 1.331 41.475 8.254 24.188 11.335 41.165 29.245 51.118 53.927 5.915 14.668 8.528 34.122 6.512 48.476-2.033 14.474-6.613 19.668-18.066 20.487-16.816 1.203-23.368-7.126-25.004-31.787-1.32-19.906-6.544-31.843-18.863-43.105-18.469-16.883-47.16-19.375-67.998-5.907-16.81 10.865-26.191 28.14-26.162 48.178.022 15.641 5.23 28.075 16.517 39.436 11.295 11.369 23.563 16.387 40.116 16.408 14.498.019 24.938-3.825 36.937-13.598l5.49-4.472 5.042 5.517c3.302 3.612 7.326 6.641 11.656 8.773 5.872 2.89 7.75 3.298 16.732 3.63 25.771.954 39.948-9.965 45.756-35.242 1.559-6.782 1.446-31.213-.187-40.596-7.029-40.386-35.007-76.247-71.571-91.735-18.235-7.724-26.052-9.369-46.5-9.782-9.075-.183-17.625-.128-19 .122m-80.054 13.145-3.446 3.75 3.75-3.446c2.063-1.896 3.75-3.583 3.75-3.75 0-.764-.846-.044-4.054 3.446M351 269.5c1.866 1.925 3.617 3.5 3.892 3.5.275 0-1.026-1.575-2.892-3.5-1.866-1.925-3.617-3.5-3.892-3.5-.275 0 1.026 1.575 2.892 3.5m-204.563 13.75-2.937 3.25 3.25-2.937c1.787-1.615 3.25-3.078 3.25-3.25 0-.773-.825-.092-3.563 2.937M362 280.313c0 .172 1.462 1.635 3.25 3.25l3.25 2.937-2.937-3.25c-2.738-3.029-3.563-3.71-3.563-2.937M.232 315c0 1.925.206 2.712.457 1.75.252-.962.252-2.538 0-3.5-.251-.962-.457-.175-.457 1.75m511 0c0 1.925.206 2.712.457 1.75.252-.962.252-2.538 0-3.5-.251-.962-.457-.175-.457 1.75m-260.5 31.077c-10.49 1.678-19.961 8.96-24.61 18.923-3.661 7.847-3.653 19.186.019 27 3.106 6.609 8.583 12.259 15.359 15.845 4.393 2.324 6.154 2.645 14.5 2.645s10.107-.321 14.5-2.645c6.776-3.586 12.253-9.236 15.359-15.845 3.476-7.396 3.64-19.108.369-26.332-6.376-14.082-20.658-21.964-35.496-19.591"/><path fill="#45a29e" fill-rule="evenodd" d="M107.207 261.298c-49.652 49.664-90.594 90.052-90.982 89.75-.387-.301.149.464 1.191 1.702 2.035 2.417 3.394 3.085 1.956.961-.479-.709.403.079 1.962 1.75s2.532 2.364 2.163 1.539c-.369-.825.308-.375 1.503 1 1.195 1.375 1.876 1.825 1.513 1-.437-.992-.179-.912.762.234.782.954 1.716 1.442 2.074 1.084.358-.358.651-.1.651.574 0 .674.45.948 1 .608.55-.34 1-.156 1 .41 0 .565.749.74 1.664.389 1.216-.467 1.441-.278.836.701-.605.979-.38 1.168.836.701.916-.351 1.664-.155 1.664.437s.675.817 1.5.5c.825-.316 1.5-.109 1.5.461 0 .581.879.757 2 .401 1.206-.383 2-.18 2 .512 0 .746 1.016.924 2.905.509 1.666-.366 3.184-.187 3.559.42.437.708 10.775 1.059 31.154 1.059 20.079 0 30.289-.342 29.882-1-.34-.55-.084-1 .569-1 .824 0 .991-1.221.547-4-.433-2.706-.27-4 .503-4 .747 0 .946-1.211.575-3.5-.334-2.054-.153-3.5.436-3.5.553 0 .719-.9.37-2-.389-1.226-.18-2 .541-2 .755 0 .951-.895.548-2.5-.381-1.518-.2-2.5.459-2.5.632 0 .821-.838.452-2-.356-1.121-.18-2 .401-2 .57 0 .777-.675.461-1.5-.317-.825-.092-1.5.5-1.5.591 0 .816-.675.5-1.5-.317-.825-.092-1.5.5-1.5.591 0 .816-.675.5-1.5-.317-.825-.092-1.5.5-1.5.591 0 .816-.675.5-1.5-.317-.825-.051-1.5.59-1.5s.888-.45.548-1c-.34-.55-.156-1 .41-1 .565 0 .74-.749.389-1.664-.467-1.216-.278-1.441.701-.836.979.605 1.168.38.701-.836-.351-.915-.176-1.664.389-1.664.566 0 .75-.45.41-1s-.115-1 .5-1 .84-.45.5-1c-.34-.55-.115-1 .5-1s.84-.45.5-1c-.34-.55-.115-1 .5-1s.84-.45.5-1c-.34-.55-.066-1 .608-1 .674 0 .932-.293.574-.651-.358-.358.13-1.292 1.084-2.074 1.157-.95 1.235-1.208.234-.775-1.001.433-.923.175.234-.775.954-.782 1.442-1.716 1.084-2.074-.358-.358-.051-.651.682-.651.733 0 1.04-.293.682-.651-.358-.358.13-1.292 1.084-2.074 1.146-.941 1.226-1.199.234-.762-.825.363-.375-.318 1-1.513 1.375-1.195 1.825-1.877 1-1.514-.825.362-.15-.548 1.5-2.023 1.65-1.476 2.325-2.369 1.5-1.986-.825.383-.375-.282 1-1.477s1.825-1.857 1-1.471c-.825.386.33-1.037 2.566-3.163 2.237-2.126 3.328-3.416 2.425-2.866-.903.55.417-.971 2.933-3.381 2.517-2.409 3.901-4.024 3.076-3.589-.887.468-1.16.419-.667-.12.459-.5 1.222-.91 1.697-.91.475 0 3.186-2.475 6.025-5.5 2.84-3.025 4.776-4.807 4.304-3.961-.473.846.416.171 1.975-1.5 1.559-1.671 2.534-2.364 2.166-1.539-.368.825.607.132 2.166-1.539 1.559-1.671 2.609-2.55 2.334-1.953-.275.598.287.228 1.25-.822.963-1.049 1.75-1.547 1.75-1.106 0 .441.661-.071 1.468-1.139.808-1.067 1.483-1.517 1.5-1 .018.518.74.068 1.606-1 .866-1.067 1.277-1.266.913-.441-.363.825.318.375 1.513-1 1.195-1.375 1.876-1.825 1.513-1-.437.992-.179.912.762-.234.782-.954 1.716-1.442 2.074-1.084.358.358.651.1.651-.574 0-.674.45-.948 1-.608.55.34 1 .115 1-.5s.45-.84 1-.5c.55.34 1 .115 1-.5s.45-.84 1-.5c.55.34 1 .115 1-.5s.45-.84 1-.5c.55.34 1 .115 1-.5s.45-.84 1-.5c.55.34 1 .093 1-.548s.675-.907 1.5-.59c.825.316 1.5.113 1.5-.452 0-.566.45-.75 1-.41s1 .093 1-.548.675-.907 1.5-.59c.825.316 1.5.153 1.5-.362s.749-.65 1.664-.299c1.216.467 1.441.278.836-.701-.605-.979-.38-1.168.836-.701.915.351 1.664.172 1.664-.398 0-.581.879-.757 2-.401s2 .18 2-.401c0-.57.675-.777 1.5-.461.825.317 1.5.048 1.5-.598 0-.72.775-.929 2-.54 1.1.349 2 .197 2-.339s.9-.738 2-.451c1.133.297 2 .031 2-.612 0-.699.921-.905 2.391-.536 1.315.33 2.692.112 3.061-.485.37-.598 1.763-.81 3.109-.472 1.52.381 2.439.181 2.439-.531 0-.793 1.529-.94 4.993-.48 3.404.451 5.474.263 6.504-.591 1.11-.921 3.828-1.065 10.256-.544 4.811.391 10.66.693 12.997.672 2.363-.021 4.25.435 4.25 1.027 0 .675 1.28.824 3.5.408 2.296-.431 3.5-.274 3.5.456 0 .641.812.855 1.916.505 1.054-.335 2.216-.122 2.584.473.368.595 1.53.808 2.584.473 1.12-.355 1.916-.136 1.916.527 0 .68.802.88 2 .5 1.225-.389 2-.18 2 .54 0 .646.675.915 1.5.598.825-.316 1.5-.091 1.5.5 0 .592.675.817 1.5.5.825-.316 1.5-.109 1.5.461 0 .581.879.757 2 .401 1.192-.378 2-.18 2 .492 0 .619.45.848 1 .508.55-.34 1-.156 1 .41 0 .565.675.768 1.5.452.825-.317 1.5-.051 1.5.59s.45.888 1 .548c.55-.34 1-.156 1 .41 0 .565.749.74 1.664.389 1.216-.467 1.441-.278.836.701-.605.979-.38 1.168.836.701.915-.351 1.664-.176 1.664.389 0 .566.45.75 1 .41s1-.115 1 .5.45.84 1 .5c.55-.34 1-.115 1 .5s.45.84 1 .5c.55-.34 1-.157 1 .406 0 .563.954 1.534 2.121 2.159 1.49.797 1.918.808 1.441.035-1.267-2.05.521-1.114 3.149 1.65 1.439 1.512 2.284 2.075 1.878 1.25-.405-.825-.029-.626.837.441.866 1.068 1.588 1.518 1.606 1 .017-.517.692-.067 1.5 1 .807 1.068 1.468 1.58 1.468 1.139 0-.441.788.057 1.75 1.106.962 1.05 1.525 1.42 1.25.822-.275-.597.775.282 2.334 1.953 1.559 1.671 2.534 2.364 2.166 1.539-.368-.825.607-.132 2.166 1.539 1.559 1.671 2.448 2.346 1.975 1.5-.472-.846 1.454.936 4.28 3.961 2.825 3.025 7.487 7.687 10.358 10.361 2.872 2.673 4.321 4.309 3.221 3.634-1.1-.674-.2.467 2 2.536 2.2 2.068 3.307 3.357 2.461 2.865-.846-.493-.171.379 1.5 1.938s2.364 2.532 1.539 2.163c-.825-.369-.375.308 1 1.503 1.375 1.195 1.825 1.876 1 1.513-.825-.364-.626.047.441.913 1.068.866 1.544 1.574 1.059 1.574-.485 0-.009.661 1.059 1.468 1.067.808 1.517 1.483 1 1.5-.518.018-.068.74 1 1.606 1.067.866 1.266 1.283.441.926-1.001-.433-.923-.175.234.775.954.782 1.442 1.716 1.084 2.074-.358.358-.1.651.574.651.674 0 .948.45.608 1-.34.55-.115 1 .5 1s.84.45.5 1c-.34.55-.115 1 .5 1s.84.45.5 1c-.34.55-.115 1 .5 1s.84.45.5 1c-.34.55-.115 1 .5 1s.84.45.5 1c-.34.55-.156 1 .41 1 .565 0 .768.675.452 1.5-.317.825-.051 1.5.59 1.5s.888.45.548 1c-.34.55-.156 1 .41 1 .565 0 .74.749.389 1.664-.467 1.216-.278 1.441.701.836.979-.605 1.168-.38.701.836-.351.915-.216 1.664.299 1.664s.678.675.362 1.5c-.317.826-.03 1.5.638 1.5s.955.674.638 1.5c-.316.825-.109 1.5.461 1.5.601 0 .753.892.361 2.125-.484 1.526-.332 1.914.54 1.375.872-.539 1.024-.151.54 1.375-.405 1.277-.241 2.125.412 2.125.659 0 .84.982.459 2.5-.403 1.605-.207 2.5.548 2.5.721 0 .93.774.541 2-.358 1.127-.18 2 .408 2 .615 0 .806 1.18.466 2.879-.334 1.67-.101 3.172.556 3.578.693.428.891 1.982.511 4.006-.374 1.993-.181 3.58.486 3.992.608.376.847 1.102.53 1.614-.35.567 11.356.931 29.925.931 20.379 0 30.717-.351 31.154-1.059.375-.607 1.893-.786 3.559-.42 1.889.415 2.905.237 2.905-.509 0-.692.794-.895 2-.512 1.121.356 2 .18 2-.401 0-.57.675-.777 1.5-.461.825.317 1.5.092 1.5-.5s.748-.788 1.664-.437c1.216.467 1.441.278.836-.701-.605-.979-.38-1.168.836-.701.915.351 1.664.176 1.664-.389 0-.566.45-.75 1-.41s1 .066 1-.608c0-.674.293-.932.651-.574.358.358 1.292-.13 2.074-1.084.941-1.146 1.199-1.226.762-.234-.363.825.318.375 1.513-1 1.195-1.375 1.872-1.825 1.503-1-.369.825.604.132 2.163-1.539 1.559-1.671 2.392-2.346 1.851-1.5-.633.992-.189.862 1.25-.366 1.228-1.048 2.233-2.135 2.233-2.417 0-.281-.209-.302-.465-.046-.255.255-41.09-40.17-90.742-89.834C355.14 211.634 314.17 171 313.747 171c-.422 0-7.85 5.116-16.507 11.368-21.989 15.882-28.03 18.608-41.24 18.608s-19.251-2.726-41.24-18.608C206.103 176.116 198.675 171 198.253 171c-.423 0-41.393 40.634-91.046 90.298"/><path fill="#56d0ca" fill-rule="evenodd" d="M490 22.313c0 .172 1.462 1.635 3.25 3.25l3.25 2.937-2.937-3.25c-2.738-3.029-3.563-3.71-3.563-2.937M9.537 34.94c-.36.583-.317 1.06.095 1.06.413 0-.123.708-1.191 1.574-1.067.866-1.266 1.283-.441.926 1.001-.433.923-.175-.234.775-.954.782-1.442 1.716-1.084 2.074.358.358.1.651-.574.651-.674 0-.948.45-.608 1 .34.55.093 1-.548 1s-.907.675-.59 1.5c.316.825.113 1.5-.452 1.5-.566 0-.75.45-.41 1s.111 1-.508 1c-.672 0-.87.808-.492 2 .38 1.198.18 2-.5 2-.68 0-.88.802-.5 2 .359 1.132.18 2-.414 2-1.439 0-1.454 263.654-.016 264.543.556.344.738 1.487.403 2.541C1.11 325.23 1.337 326 2.04 326c.646 0 .915.675.598 1.5-.316.825-.091 1.5.5 1.5.592 0 .817.675.5 1.5-.316.825-.113 1.5.452 1.5.566 0 .75.45.41 1s-.156 1 .41 1c.565 0 .74.749.389 1.664-.401 1.044-.242 1.419.426 1.006.586-.362 1.332.037 1.659.888.39 1.016.169 1.331-.645.92-.682-.345-.365.082.702.948 1.068.866 1.58 1.574 1.139 1.574-.441 0 .261.934 1.559 2.076 1.299 1.142 1.686 1.758.861 1.368-.825-.389.075.751 2 2.535 1.925 1.783 2.6 2.63 1.5 1.882-1.856-1.263-1.897-1.23-.571.458 1.321 1.679 8.358-5.109 92.226-88.974 49.939-49.936 90.47-91.072 90.071-91.414-.399-.342-41.901-30.232-92.226-66.423C53.675 66.317 11.981 36.07 11.346 35.293c-.765-.936-1.375-1.055-1.809-.353m489.935.931C498.387 36.9 456.775 67.12 407 103.025c-49.775 35.906-90.827 65.563-91.226 65.905-.399.342 40.132 41.479 90.071 91.415 83.868 83.865 90.905 90.653 92.226 88.974 1.326-1.688 1.285-1.721-.571-.458-1.1.748-.425-.099 1.5-1.882 1.925-1.784 2.825-2.924 2-2.535-.825.39-.438-.226.861-1.368 1.298-1.142 2-2.076 1.559-2.076-.441 0 .071-.708 1.139-1.574 1.067-.866 1.384-1.293.702-.948-.814.411-1.035.096-.645-.92.327-.851 1.073-1.25 1.659-.888.668.413.827.038.426-1.006-.351-.915-.176-1.664.389-1.664.566 0 .75-.45.41-1s-.156-1 .41-1c.565 0 .768-.675.452-1.5-.317-.825-.092-1.5.5-1.5.591 0 .816-.675.5-1.5-.317-.825-.048-1.5.598-1.5.703 0 .93-.77.567-1.916-.335-1.054-.153-2.197.403-2.541 1.438-.889 1.423-264.543-.016-264.543-.594 0-.773-.868-.414-2 .38-1.198.18-2-.5-2-.68 0-.88-.802-.5-2 .378-1.192.18-2-.492-2-.619 0-.848-.45-.508-1 .34-.55.115-1-.5-1s-.859-.419-.543-.931c.317-.512.111-1.218-.457-1.569-.568-.351-.774-1.057-.457-1.569.316-.512.072-.931-.543-.931s-.869-.403-.565-.895c.305-.493-.183-1.178-1.084-1.524-.9-.345-1.355-.91-1.01-1.256.345-.345-.153-1.268-1.107-2.05-.953-.783-1.102-1.095-.329-.695.923.479 1.16.334.69-.425-.906-1.467-.795-1.492-3.123.716"/><path fill="#66fcf1" fill-rule="evenodd" d="M42 13.573c-8.807 2.327-17.991 7.488-24.309 13.66-3.228 3.153-5.716 6.18-5.53 6.727.271.794 174.527 126.998 212.839 154.148 13.665 9.684 18.079 11.292 31 11.292 12.119 0 17.29-1.65 27.456-8.76 4.995-3.494 215.202-155.267 216.433-156.269.215-.174-.81-1.89-2.277-3.813-3.751-4.918-14.123-12.058-22.235-15.305C468.5 12.5 468.5 12.5 258 12.31c-181.335-.164-211.262.011-216 1.263"/></svg>
