<svg viewBox="0 0 512 512" xmlns="http://www.w3.org/2000/svg"><path fill="#ffb632" fill-rule="evenodd" d="M248.923 8.923C246 11.846 246 11.846 246 38.5c0 26.654 0 26.654 2.923 29.577 4.116 4.116 10.038 4.116 14.154 0C266 65.154 266 65.154 266 38.5c0-26.654 0-26.654-2.923-29.577-4.116-4.116-10.038-4.116-14.154 0M81.11 77.396c-3.15 1.745-5.031 5.295-5.075 9.575-.032 3.187 1.5 5.005 18.744 22.25C113.482 127.923 113.577 128 117.975 128c6.326 0 10.025-3.656 10.025-9.908 0-4.534 0-4.534-18.779-23.313-17.245-17.244-19.063-18.776-22.25-18.744-1.909.02-4.546.632-5.861 1.361m321.669 17.383C384.449 113.109 384 113.658 384 117.702c0 3 .715 4.994 2.589 7.221 2.205 2.62 3.276 3.077 7.221 3.077 4.632 0 4.632 0 23.411-18.779C433.704 92.738 436 90.053 436 87.268 436 80.605 431.454 76 424.875 76c-2.971 0-5.273 1.957-22.096 18.779M8.923 248.923c-4.116 4.116-4.116 10.038 0 14.154C11.846 266 11.846 266 38.5 266c26.654 0 26.654 0 29.577-2.923 4.116-4.116 4.116-10.038 0-14.154C65.154 246 65.154 246 38.5 246c-26.654 0-26.654 0-29.577 2.923m435 0C441.631 251.216 441 252.742 441 256s.631 4.784 2.923 7.077C446.846 266 446.846 266 473.5 266c26.654 0 26.654 0 29.577-2.923 2.292-2.293 2.923-3.819 2.923-7.077s-.631-4.784-2.923-7.077C500.154 246 500.154 246 473.5 246c-26.654 0-26.654 0-29.577 2.923M94.779 402.779C78.063 419.495 76 421.918 76 424.829 76 431.634 80.404 436 87.268 436c2.785 0 5.47-2.296 21.953-18.779C127.923 398.518 128 398.423 128 394.025c0-6.326-3.656-10.025-9.908-10.025-4.534 0-4.534 0-23.313 18.779m291.908-15.974c-2.087 2.178-2.687 3.791-2.687 7.22 0 4.398.077 4.493 18.779 23.196C419.602 434.043 421.904 436 424.875 436c6.579 0 11.125-4.605 11.125-11.268 0-2.785-2.296-5.47-18.779-21.953C398.442 384 398.442 384 393.908 384c-3.662 0-5.051.539-7.221 2.805m-137.764 57.118C246 446.846 246 446.846 246 473.5c0 26.654 0 26.654 2.923 29.577 2.293 2.292 3.819 2.923 7.077 2.923s4.784-.631 7.077-2.923C266 500.154 266 500.154 266 473.5c0-26.654 0-26.654-2.923-29.577-2.293-2.292-3.819-2.923-7.077-2.923s-4.784.631-7.077 2.923"/><path fill="#ffd33a" fill-rule="evenodd" d="M238.5 113.689c-23.317 3.022-48.585 13.155-67.207 26.953-29.09 21.553-48.008 51.107-55.92 87.358-2.646 12.124-2.646 43.876 0 56 9.625 44.099 37.363 80.302 76.627 100.012 19.253 9.665 36.462 13.911 59.5 14.679 13.354.446 17.985.192 28-1.533 30.245-5.21 55.821-18.457 77.511-40.147 16.33-16.33 27.433-34.154 34.487-55.36 5.867-17.637 7.001-25.03 7.001-45.651 0-20.621-1.134-28.014-7.001-45.651-16.486-49.56-59.676-86.575-111.317-95.404-10.604-1.812-32.336-2.468-41.681-1.256"/></svg>
