<svg viewBox="0 0 512 512" xmlns="http://www.w3.org/2000/svg"><path fill="#63fbf3" fill-rule="evenodd" d="M0 256.002v256.002l256.25-.252 256.25-.252.252-255.75L513.004 0H0v256.002m.492.498c0 140.8.116 198.251.258 127.67.142-70.582.142-185.782 0-256C.608 57.951.492 115.7.492 256.5m95.474-49.25c-2.937 1.483-5.221 3.614-6.695 6.25-2.209 3.948-2.238 4.5-2.255 42.79-.015 36.504.099 39.015 1.934 42.612 2.474 4.849 7.787 7.594 14.55 7.517 6.486-.073 10.772-2.404 13.105-7.125 1.532-3.1 1.937-6.63 2.215-19.294.187-8.525.71-15.884 1.162-16.353.453-.468 3.174 2.139 6.046 5.794 11.022 14.025 19.972 14.04 32.349.054 3.233-3.652 6.241-6.27 6.685-5.818.445.453.95 8.023 1.123 16.823.342 17.396 1.045 20.14 6.116 23.893 2.065 1.529 4.301 2.074 8.508 2.074 6.873 0 11.7-2.471 14.656-7.502 1.953-3.325 2.035-5.04 2.035-42.465 0-38.357-.037-39.068-2.217-43.145-1.537-2.875-3.548-4.789-6.565-6.25-5.412-2.62-7.62-2.634-13.533-.086-3.793 1.634-7.247 4.966-18.142 17.5-7.401 8.514-13.975 15.481-14.607 15.481-.633 0-7.393-7.043-15.022-15.652-17.579-19.833-21.647-22.045-31.448-17.098m162.534-.765c-2.2.769-5.257 2.887-6.793 4.706-3.121 3.697-36.063 71.704-37.728 77.886-2.123 7.883 3.926 15.886 13.189 17.451 6.26 1.058 11.506-2.163 17.558-10.779 2.801-3.987 6.955-9.049 9.231-11.249 3.949-3.816 4.433-4 10.518-4 8.798 0 11.886 2.507 21.025 17.075 4.285 6.831 7.451 8.859 13.775 8.827 6.456-.032 10.85-2.25 13.747-6.938 4.219-6.826 3.236-9.89-16.35-50.964-11.801-24.748-18.511-37.703-20.266-39.124-2.746-2.224-8.805-4.407-12.022-4.332-1.036.024-3.684.673-5.884 1.441m83.291-.497c-7.592 2.289-13.634 10.834-12.239 17.311 1.168 5.428 3.17 8.36 13.983 20.485 5.748 6.444 10.453 12 10.457 12.347.005.348-4.482 5.633-9.969 11.745-5.487 6.112-10.887 12.898-12 15.079-4.375 8.576-1.293 17.298 7.662 21.679 8.898 4.354 14.006 1.933 26.925-12.759 5.259-5.981 9.952-10.875 10.428-10.875.477 0 5.209 4.932 10.517 10.96 13.194 14.987 18.209 17.24 27.643 12.421 3.944-2.015 7.904-7.725 8.515-12.275.783-5.84-2.117-10.873-13.765-23.884-5.553-6.203-9.95-11.67-9.772-12.149.178-.479 4.824-5.896 10.324-12.037 9.551-10.664 14.459-18.277 14.487-22.47.021-3.154-3.955-10.407-6.823-12.446-1.465-1.042-4.546-2.457-6.847-3.145-6.561-1.963-11.7 1.15-23.149 14.025-5.136 5.775-10.118 10.5-11.072 10.5-.955 0-5.69-4.5-10.523-10-5.713-6.502-10.539-10.962-13.794-12.75-5.253-2.885-6.564-3.095-10.988-1.762"/></svg>
