<svg viewBox="0 0 512 512" xmlns="http://www.w3.org/2000/svg"><path fill="#fff" fill-rule="evenodd" d="M232.472 30.525C201.591 37.311 176.762 59.807 166.83 90c-2.809 8.541-3.173 11.064-3.601 25-.472 15.341-.506 15.534-3.347 18.778-6.951 7.939-9.547 18.563-7.955 32.565 1.454 12.802 5.745 22.09 14.625 31.657 2.223 2.394 3.463 4.922 3.927 8 1.26 8.364 5.601 24.468 8.029 29.785 1.328 2.907 4.287 7.956 6.577 11.221 4.164 5.936 4.164 5.936 3.737 20.715-.382 13.189-.701 15.371-2.965 20.279-3.219 6.977-6.958 11.397-12.212 14.437-2.28 1.318-24.906 11.015-50.281 21.547-25.374 10.532-48.953 20.807-52.396 22.833-7.933 4.666-19.81 15.691-25.411 23.588-5.698 8.033-10.988 18.731-13.733 27.774-2.126 7.002-2.239 9.252-2.581 51.695-.358 44.375-.358 44.375 1.874 46.75C33.032 498.663 34.291 499 40 499c5.66 0 6.976-.345 8.826-2.314C50.738 494.65 51 493.244 51 485.033v-9.338l5.498 5.403c6.707 6.59 15.795 12.226 24.487 15.184 6.515 2.218 6.515 2.218 201.94 2.478 195.425.26 195.425.26 197.806-1.977 2.38-2.236 2.38-2.236 2.025-46.76-.34-42.605-.451-44.838-2.579-51.844-2.455-8.083-7.785-19.245-12.501-26.179-7.289-10.715-20.806-22.585-32.176-28.254-2.75-1.371-24.8-10.687-49-20.701-24.2-10.014-45.865-19.287-48.145-20.607-5.253-3.04-8.992-7.459-12.216-14.438-2.281-4.939-2.583-7.04-2.957-20.588-.416-15.088-.416-15.088 3.358-20 2.076-2.701 5.058-7.725 6.628-11.163 2.818-6.174 7.101-21.511 8.448-30.249.511-3.316 1.819-5.759 4.973-9.285 7.938-8.875 11.856-17.84 13.488-30.859 1.659-13.23-1.063-24.203-7.959-32.078-2.841-3.244-2.875-3.437-3.347-18.778-.428-13.933-.792-16.46-3.6-25-10.003-30.423-35.139-52.972-66.371-59.542-8.814-1.854-37.775-1.812-46.328.067m3.028 3.131c-33.473 7.138-61.032 34.954-67.92 68.552-.906 4.418-1.58 12.653-1.58 19.293 0 11.585 0 11.585-3.978 16.853-5.217 6.911-7.025 12.331-7.01 21.022.021 12.477 4.601 24.144 13.451 34.26 3.645 4.167 4.576 6.098 5.516 11.439 3.116 17.717 7.639 30.088 14.152 38.715 4.057 5.373 4.057 5.373 3.626 23.542-.493 20.781-1.375 24.356-7.881 31.958-2.255 2.634-6.187 5.847-8.738 7.138-2.551 1.292-24.888 10.758-49.638 21.037-26.074 10.828-48.045 20.576-52.241 23.177-20.908 12.962-35.009 33.568-39.824 58.196-1.09 5.576-1.435 16.334-1.435 44.795 0 37.458 0 37.458 2.455 39.912 3.247 3.248 7.843 3.248 11.09 0 2.367-2.366 2.455-2.944 2.455-16.11V463.78l4.334 5.887c7.876 10.7 18.143 18.189 32.391 23.628 5.775 2.205 5.775 2.205 198.055 2.47 192.281.265 192.281.265 194.75-2.205 2.47-2.469 2.47-2.469 2.47-39.927 0-28.461-.345-39.219-1.435-44.795-4.814-24.621-18.881-45.184-39.824-58.211-4.248-2.643-26.046-12.321-52.741-23.417-25.025-10.401-47.364-19.864-49.643-21.027-2.278-1.163-5.985-4.267-8.238-6.899-6.492-7.585-7.383-11.186-7.874-31.821l-.429-18.037 5.111-7.418c5.614-8.15 9.642-19.14 12.648-34.508 1.529-7.821 2.277-9.589 5.704-13.5C352.101 183.934 357 171.623 357 159.52c0-8.841-1.79-14.235-7.022-21.166C346 133.086 346 133.086 346 121.501c0-6.64-.674-14.875-1.58-19.293-6.958-33.942-34.686-61.67-68.628-68.628-9.766-2.002-30.733-1.963-40.292.076"/><path fill="#70747b" fill-rule="evenodd" d="M191.966 57.75 186.5 63.5l5.75-5.466c5.342-5.078 6.208-6.034 5.466-6.034-.156 0-2.744 2.587-5.75 5.75M319.5 58c2.709 2.75 5.15 5 5.425 5 .275 0-1.716-2.25-4.425-5-2.709-2.75-5.15-5-5.425-5-.275 0 1.716 2.25 4.425 5M202.462 69.25 197.5 74.5l5.25-4.962c4.878-4.612 5.709-5.538 4.962-5.538-.158 0-2.52 2.362-5.25 5.25M308.5 69c2.148 2.2 4.131 4 4.406 4 .275 0-1.258-1.8-3.406-4s-4.131-4-4.406-4c-.275 0 1.258 1.8 3.406 4m-142.268 59c0 1.925.206 2.713.457 1.75.252-.963.252-2.537 0-3.5-.251-.963-.457-.175-.457 1.75m179.02.5c.011 2.2.216 2.982.455 1.738.239-1.244.23-3.044-.02-4s-.446.062-.435 2.262M329.3 135c0 3.025.187 4.262.416 2.75.229-1.512.229-3.988 0-5.5s-.416-.275-.416 2.75m-147.014.5c.008 2.75.202 3.756.432 2.236.229-1.52.223-3.77-.014-5-.237-1.23-.425.014-.418 2.764M211 247.313c0 .172 1.463 1.635 3.25 3.25l3.25 2.937-2.937-3.25c-2.738-3.029-3.563-3.71-3.563-2.937m81 8.187c-4.097 4.125-7.225 7.5-6.95 7.5.275 0 3.853-3.375 7.95-7.5 4.097-4.125 7.225-7.5 6.95-7.5-.275 0-3.853 3.375-7.95 7.5m-69.5 3.5c2.148 2.2 4.131 4 4.406 4 .275 0-1.258-1.8-3.406-4s-4.131-4-4.406-4c-.275 0 1.258 1.8 3.406 4m73.937 14.25-2.937 3.25 3.25-2.937c3.029-2.738 3.71-3.563 2.937-3.563-.172 0-1.635 1.462-3.25 3.25m-115 29-2.937 3.25 3.25-2.937c3.029-2.738 3.71-3.563 2.937-3.563-.172 0-1.635 1.462-3.25 3.25m7.051 14.769c-1.149 1.86-9.897 5.751-56.031 24.923-27.677 11.501-48.262 20.65-52.126 23.168-12.984 8.46-24.463 23.689-29.627 39.307-1.746 5.283-2.068 9.471-2.445 31.846-.433 25.764-.433 25.764 2.099 30.084 3.365 5.743 12.587 15.008 18.982 19.072 6.986 4.44 16.86 8.246 24.686 9.515 9.09 1.475 377.35 1.354 374.295-.123-1.198-.579-2.648-2.236-3.223-3.682-.641-1.615-1.162-17.478-1.351-41.129-.307-38.5-.307-38.5-3.001-46.5-5.238-15.549-15.584-29.25-28.647-37.934-4.482-2.98-22.273-10.924-54.137-24.175-26.104-10.855-49.141-20.784-51.192-22.064-2.052-1.28-4.113-2.327-4.582-2.327-.468 0-2.375 2.363-4.237 5.25-5.208 8.075-19.511 21.899-27.451 26.531-12.55 7.321-17.936 8.676-34.5 8.676-16.586 0-22.004-1.366-34.5-8.701-8.192-4.808-22.35-18.718-27.5-27.019-3.588-5.783-4.416-6.491-5.512-4.718M216.5 325c2.709 2.75 5.15 5 5.425 5 .275 0-1.716-2.25-4.425-5-2.709-2.75-5.15-5-5.425-5-.275 0 1.716 2.25 4.425 5M56.946 363.75 53.5 367.5l3.75-3.446c2.063-1.896 3.75-3.583 3.75-3.75 0-.764-.846-.044-4.054 3.446M454 363.5c1.866 1.925 3.617 3.5 3.892 3.5.275 0-1.026-1.575-2.892-3.5-1.866-1.925-3.617-3.5-3.892-3.5-.275 0 1.026 1.575 2.892 3.5M32.232 420c0 1.925.206 2.712.457 1.75.252-.962.252-2.538 0-3.5-.251-.962-.457-.175-.457 1.75m447 0c0 1.925.206 2.712.457 1.75.252-.962.252-2.538 0-3.5-.251-.962-.457-.175-.457 1.75"/><path fill="#455a64" fill-rule="evenodd" d="M244 32.969c-20.122 2.574-35.781 10.027-50.362 23.97-18.195 17.4-26.842 37.895-27.042 64.101-.096 12.54-.096 12.54-3.367 16.671-5.697 7.193-7.656 12.794-7.62 21.789.051 12.976 6.079 27.12 15.314 35.937 1.693 1.615 3.081 3.865 3.086 5 .015 3.484 4.674 22.726 6.993 28.878 1.205 3.199 4.204 8.818 6.665 12.489 4.475 6.673 4.475 6.673 4.154 26.684-.367 22.88-.888 24.684-9.662 33.437-4.361 4.35-7.574 5.857-50.159 23.512-25.025 10.375-48.2 20.199-51.5 21.831-23.516 11.63-40.534 33.99-46.604 61.232-.985 4.419-1.345 16.07-1.367 44.219-.029 38.033-.018 38.23 2.165 40.417 2.874 2.878 7.734 2.88 10.612.005 2.166-2.165 2.202-2.715 2.774-42.417.532-36.82.752-40.739 2.608-46.307 5.226-15.678 16.671-30.855 29.643-39.307 3.865-2.518 24.459-11.671 52.159-23.182 47.475-19.729 52.733-22.061 55.906-24.795 1.51-1.3 1.991-1.36 2.363-.295.256.736 3.132 4.875 6.389 9.198 10.607 14.076 23.64 24.104 37.852 29.125 5.635 1.99 8.431 2.296 21 2.296 16.564 0 21.95-1.355 34.5-8.676 7.94-4.632 22.243-18.456 27.451-26.531 1.862-2.887 3.769-5.25 4.237-5.25.469 0 2.53 1.047 4.582 2.327 2.051 1.28 25.088 11.209 51.192 22.064 31.864 13.251 49.655 21.195 54.137 24.175 13.063 8.684 23.409 22.385 28.647 37.934 2.694 8 2.694 8 3.001 46.5.192 24.001.706 39.503 1.366 41.164 1.482 3.73 5.882 5.427 9.533 3.676 5.133-2.461 5.325-3.811 5.313-37.34-.006-17.05-.437-35.384-.958-40.742-2.884-29.64-21.236-56.489-47.501-69.493-3.3-1.634-26.475-11.459-51.5-21.834-42.567-17.648-45.8-19.163-50.159-23.509-8.773-8.746-9.295-10.553-9.662-33.434-.321-20.011-.321-20.011 4.154-26.684 2.461-3.671 5.449-9.278 6.64-12.462 2.469-6.598 7.024-24.759 7.026-28.011 0-1.193 2.262-4.793 5.026-8 6.404-7.431 10.57-15.832 12.563-25.331 2.498-11.906.416-21.157-6.817-30.289-3.271-4.131-3.271-4.131-3.367-16.671-.2-26.206-8.847-46.701-27.042-64.101-12.067-11.539-24.316-18.321-39.561-21.903-9.771-2.296-25.644-3.238-34.801-2.067m-8.389 17.008c-20.458 5.513-37.394 19.502-46.639 38.523-5.686 11.698-6.94 18.333-6.957 36.823-.015 15.823-.015 15.823-4.116 19.5-5.516 4.946-6.899 7.97-6.899 15.09 0 8.994 2.987 15.826 10.499 24.011 5.412 5.898 6.456 7.643 7.031 11.751 2.015 14.393 5.878 27.932 9.955 34.889 6.119 10.442 25.78 31.386 36.195 38.558C238.86 272 238.86 272 256.089 272s17.229 0 22.82-4.192c12.159-9.117 31.087-29.999 36.1-39.826 2.478-4.857 6.41-19.282 8.083-29.653 1.194-7.4 1.469-7.932 7.502-14.506 7.414-8.079 10.406-14.954 10.406-23.91 0-7.184-1.601-10.637-6.862-14.804-3.922-3.106-3.922-3.106-4.384-21.858-.394-16.034-.785-19.693-2.699-25.251-8.435-24.501-26.872-41.688-51.465-47.977-10.592-2.709-30.015-2.731-39.979-.046m-27.619 223.247c-.01 9.086-1.742 18.497-4.527 24.609-2.313 5.075-2.352 5.487-.822 8.5 3.071 6.044 11.598 16.722 17.685 22.144 27.199 24.228 62.941 17.478 85.288-16.108l5.621-8.449-2.52-5.71c-3.151-7.138-3.814-10.305-4.594-21.944l-.623-9.301-7.738 6.799c-4.255 3.739-10.313 8.359-13.461 10.267-5.723 3.469-5.723 3.469-26.301 3.469s-20.578 0-26.281-3.457c-3.137-1.901-9.307-6.525-13.711-10.275L208 266.949l-.008 6.275"/><path fill="#edbc94" fill-rule="evenodd" d="M241.763 49.033c-14.836 2.498-26.675 8.816-38.295 20.435-9.741 9.741-14.355 17.204-18.571 30.032-2.033 6.186-2.306 9.02-2.349 24.367-.048 17.367-.048 17.367-4.186 21-6.059 5.319-7.711 9.201-7.108 16.708.683 8.512 4.382 16.072 11.145 22.781 3.08 3.056 5.601 5.723 5.601 5.926 0 .202.918 5.468 2.041 11.701 3.12 17.328 6.181 25.464 13.029 34.625 7.009 9.378 22.099 24.818 30.279 30.984 5.849 4.408 5.849 4.408 22.32 4.408s16.471 0 21.151-3.176c10.785-7.32 33.026-31.556 37.921-41.324 2.62-5.227 4.657-12.532 7.194-25.801 1.136-5.94 2.065-10.993 2.065-11.228 0-.235 2.401-2.828 5.335-5.763 6.811-6.811 10.517-14.318 11.322-22.934.553-5.929.349-7.088-1.936-10.988-1.406-2.398-3.668-4.955-5.028-5.683-4.121-2.205-4.772-5.119-4.119-18.426.931-18.962-2.346-32.029-11.508-45.884-14.177-21.44-36.496-33.034-62.904-32.675-4.764.064-10.793.476-13.399.915m-75.684 82.888c-.043.782-.85 2.357-1.792 3.5-1.615 1.96-1.58 1.956.618-.067 1.282-1.18 2.089-2.755 1.792-3.5-.437-1.097-.554-1.084-.618.067m.921 60.392c0 .172 1.463 1.635 3.25 3.25l3.25 2.937-2.937-3.25c-2.738-3.029-3.563-3.71-3.563-2.937m174.437 2.937-2.937 3.25 3.25-2.937c3.029-2.738 3.71-3.563 2.937-3.563-.172 0-1.635 1.463-3.25 3.25m-133.644 82.969c-.376 9.204-.952 12.492-3.127 17.859-1.466 3.619-2.666 7.036-2.666 7.595 0 2.119 8.453 13.971 14.325 20.087 12.357 12.869 24.369 18.457 39.675 18.457 14.967 0 27.232-5.553 39.333-17.809C301.325 318.34 310 306.235 310 303.944c0-.708-1.2-4.247-2.666-7.866-2.178-5.374-2.75-8.652-3.129-17.913l-.463-11.336-4.621 4.449c-6.158 5.929-14.611 12.421-19.262 14.794-3.361 1.715-6.002 1.928-23.869 1.928-22.084 0-21.901.04-31.49-6.853-2.75-1.977-7.53-5.983-10.623-8.902l-5.623-5.307-.461 11.281"/></svg>
